<?xml version="1.0" standalone="no"?>
<!DOCTYPE svg PUBLIC "-//W3C//DTD SVG 20010904//EN"
 "http://www.w3.org/TR/2001/REC-SVG-20010904/DTD/svg10.dtd">
<svg version="1.0" xmlns="http://www.w3.org/2000/svg"
 width="634.000000pt" height="634.000000pt" viewBox="0 0 634.000000 634.000000"
 preserveAspectRatio="xMidYMid meet">
<metadata>
Created by potrace 1.14, written by Peter Selinger 2001-2017
</metadata>
<g transform="translate(0.000000,634.000000) scale(0.100000,-0.100000)"
fill="#000000" stroke="none">
<path d="M3010 6337 c0 -2 -15 -46 -34 -98 -34 -97 -99 -232 -157 -330 -77
-129 -115 -211 -126 -269 -7 -39 -7 -131 0 -170 15 -79 54 -179 144 -370 79
-165 97 -243 79 -327 -7 -33 -58 -146 -73 -161 -7 -7 -13 -17 -13 -21 0 -4
-12 -13 -27 -20 -40 -19 -67 7 -140 139 -36 63 -71 122 -79 131 -8 8 -14 18
-14 22 0 3 -31 53 -68 109 -108 163 -133 220 -131 303 4 170 1 213 -20 288
-42 152 -108 265 -137 235 -13 -13 -82 -148 -124 -243 -12 -27 -32 -72 -45
-100 -70 -158 -115 -299 -115 -365 0 -36 14 -100 30 -135 9 -20 31 -95 36
-125 26 -152 26 -290 -1 -345 -15 -30 -27 -41 -47 -43 -22 -3 -27 1 -33 29
-11 49 -113 218 -163 268 -7 8 -46 57 -86 110 -98 131 -122 168 -155 241 -42
89 -56 113 -78 128 -20 13 -24 12 -47 -13 -48 -52 -55 -133 -42 -500 6 -171
-3 -240 -41 -325 -20 -46 -35 -62 -66 -73 -43 -16 -119 103 -228 357 -47 109
-71 142 -94 128 -68 -37 -224 -349 -313 -623 -52 -159 -68 -252 -52 -294 6
-16 6 -25 0 -26 -36 -5 -74 -26 -155 -86 -104 -77 -145 -126 -174 -208 -20
-56 -23 -80 -19 -166 2 -55 8 -103 13 -107 6 -4 17 -20 25 -36 19 -36 97 -107
158 -141 91 -53 138 -112 147 -186 8 -66 14 -78 43 -93 63 -33 143 26 162 119
17 80 46 117 109 137 60 20 93 43 168 117 49 50 53 52 90 45 21 -3 54 -16 73
-28 19 -11 36 -20 38 -18 6 6 112 -54 162 -91 57 -42 110 -91 110 -101 0 -3 8
-16 18 -27 92 -115 160 -164 248 -177 61 -10 99 -4 172 29 62 29 147 27 247
-6 54 -17 82 -23 143 -31 44 -5 60 -2 100 19 60 31 99 40 183 39 95 0 169 -18
224 -53 52 -33 86 -33 122 0 17 16 69 38 113 48 8 2 51 4 95 5 91 1 178 -20
214 -53 29 -27 92 -29 117 -5 49 49 209 74 332 51 19 -4 55 -18 80 -32 57 -30
108 -27 247 12 131 37 186 35 282 -11 88 -42 123 -45 173 -16 19 11 54 31 76
44 63 35 110 81 123 120 15 45 59 86 206 196 36 26 98 63 138 81 56 26 80 22
157 -27 63 -40 240 -213 240 -235 0 -9 5 -17 11 -19 6 -2 12 -19 14 -38 6 -59
21 -87 56 -99 44 -15 84 -14 118 4 31 15 40 32 47 83 8 62 61 128 174 217 41
33 81 67 88 77 7 9 19 24 28 32 8 9 26 41 40 72 35 79 32 161 -9 244 -42 85
-134 174 -222 216 -42 20 -131 23 -340 12 -128 -7 -135 -3 -136 91 -1 42 -2
87 -3 101 -2 14 -6 57 -10 95 -3 39 -8 81 -10 95 -3 14 -8 52 -11 85 -4 33 -9
71 -11 85 -3 23 -6 44 -19 110 -8 43 -27 80 -40 80 -32 0 -111 -117 -198 -295
-121 -246 -168 -324 -235 -391 -43 -43 -100 -76 -114 -68 -11 7 -6 134 4 134
5 0 7 3 6 8 -4 12 45 142 54 142 4 0 7 3 6 8 -2 7 24 58 62 122 64 108 111
222 117 283 5 62 -8 149 -31 212 -34 89 -116 281 -135 315 -5 8 -30 56 -55
105 -101 195 -141 193 -147 -9 -2 -74 -35 -218 -59 -258 -5 -10 -10 -24 -10
-32 0 -8 -3 -16 -7 -18 -5 -1 -20 -28 -35 -58 -51 -101 -173 -269 -213 -292
-10 -6 -13 43 -12 240 1 237 -3 306 -23 382 -5 19 -11 46 -14 60 -2 14 -11 43
-19 66 -8 22 -17 66 -20 98 -4 31 -11 71 -16 89 -6 18 -27 86 -47 152 -20 66
-42 134 -49 150 -8 17 -29 70 -49 119 -41 103 -95 196 -113 196 -20 0 -23 -48
-28 -355 -2 -159 -7 -306 -10 -325 -3 -19 -7 -53 -9 -75 -9 -79 -17 -140 -22
-156 -2 -10 -7 -30 -9 -45 -15 -96 -57 -230 -98 -306 -45 -88 -168 -176 -203
-147 -27 22 -16 79 37 196 37 82 45 106 54 173 2 14 4 27 5 30 2 3 2 7 2 10
-14 192 -43 262 -144 357 -180 169 -220 220 -288 366 -42 90 -70 185 -76 262
-18 210 -39 272 -113 346 -15 14 -51 32 -51 26z m106 -236 c2 -31 6 -90 8
-133 5 -82 10 -106 33 -183 18 -63 28 -84 75 -164 21 -34 38 -65 38 -67 0 -2
8 -12 18 -22 9 -10 28 -32 41 -48 13 -16 54 -61 91 -100 86 -91 139 -170 175
-259 24 -60 29 -84 29 -166 0 -95 -1 -97 -47 -189 -26 -51 -50 -109 -53 -129
-3 -20 -8 -38 -10 -40 -2 -2 3 -16 11 -31 16 -31 11 -40 -21 -40 -46 0 -77
-88 -100 -286 -4 -32 -8 -190 -8 -351 -1 -160 -4 -294 -7 -297 -19 -19 -437
-30 -526 -14 -71 13 -115 55 -138 134 -20 69 -21 86 -11 264 4 74 8 167 10
205 10 180 18 208 81 278 81 90 93 105 119 155 44 87 51 114 51 212 -1 108
-18 175 -73 290 -19 41 -36 77 -37 80 0 3 -7 16 -15 30 -15 26 -62 121 -65
130 -1 3 -11 36 -23 74 -12 37 -22 84 -22 103 0 39 39 159 81 249 16 34 29 65
29 69 0 5 7 16 16 26 8 9 16 23 18 31 1 7 11 29 22 48 12 19 23 40 25 45 13
35 75 129 110 166 l41 44 15 -29 c8 -15 17 -54 19 -85z m962 -363 c18 -38 20
-46 37 -183 4 -27 13 -77 22 -110 18 -70 16 -65 47 -180 113 -427 116 -536 25
-823 -32 -99 -39 -115 -128 -286 -28 -55 -49 -102 -46 -104 3 -3 1 -10 -4 -16
-7 -9 -16 -43 -47 -181 -11 -47 -18 -115 -18 -175 l-1 -65 -248 0 c-191 -1
-246 2 -243 12 3 6 1 27 -5 45 -15 52 -23 198 -22 403 1 237 4 250 98 349 22
24 90 85 150 136 189 159 220 202 250 340 5 24 24 199 30 280 3 36 7 88 10
117 6 64 15 195 19 285 2 36 7 81 11 100 8 36 31 78 44 78 4 0 13 -10 19 -22z
m-1789 -107 c23 -85 31 -145 36 -271 3 -52 7 -113 10 -135 4 -22 7 -49 9 -60
4 -26 15 -65 26 -90 5 -11 18 -41 29 -66 11 -25 27 -52 36 -59 8 -7 15 -17 15
-22 0 -7 49 -76 91 -126 25 -31 107 -171 123 -211 14 -37 16 -63 9 -190 -9
-198 -9 -493 2 -566 19 -134 4 -193 -59 -231 -49 -30 -241 -26 -342 7 -182 58
-267 211 -259 467 2 53 5 106 8 117 3 11 8 49 12 85 4 36 9 79 12 95 2 17 5
131 7 255 4 204 -1 311 -19 395 -13 64 -13 137 0 201 43 202 178 467 229 448
9 -3 20 -22 25 -43z m-825 -563 c8 -13 17 -34 21 -48 8 -27 92 -143 147 -201
54 -58 108 -127 108 -138 0 -6 4 -11 9 -11 5 0 17 -15 27 -32 109 -207 129
-274 139 -463 4 -89 7 -106 26 -195 12 -55 47 -146 69 -180 33 -50 80 -158 80
-183 0 -34 -18 -38 -199 -43 -224 -6 -302 13 -388 96 -77 74 -128 185 -137
300 -6 83 -11 102 -37 157 -33 69 -28 121 21 229 35 76 47 111 57 164 8 45 7
200 -2 270 -14 106 -15 260 -2 281 16 26 43 24 61 -3z m3291 -39 c63 -99 172
-330 181 -381 1 -5 2 -9 4 -10 7 -10 12 -55 12 -128 0 -97 -16 -149 -90 -290
-64 -120 -95 -183 -107 -220 -1 -3 -5 -12 -8 -20 -42 -101 -76 -254 -74 -328
l2 -43 -330 5 c-181 3 -338 5 -348 5 -10 1 -16 5 -13 10 6 9 8 22 21 131 3 30
11 73 17 95 6 22 11 45 13 50 1 6 5 17 8 25 3 8 11 33 17 55 38 126 142 286
194 299 14 3 28 15 31 26 3 11 10 20 14 20 11 0 90 78 132 130 54 68 151 216
196 300 55 103 83 190 83 255 0 30 4 55 10 55 5 0 21 -18 35 -41z m-3827 -403
c23 -25 42 -49 42 -55 0 -5 3 -11 8 -13 10 -4 118 -167 132 -198 5 -14 19 -38
30 -55 10 -16 27 -46 36 -65 10 -19 26 -47 36 -62 11 -16 17 -28 14 -28 -3 0
8 -26 24 -57 16 -31 40 -91 54 -132 13 -42 41 -130 62 -196 21 -66 39 -130 41
-142 6 -37 -29 -51 -115 -48 -96 3 -183 30 -287 91 -133 77 -158 90 -214 109
-30 10 -71 19 -90 20 -83 6 -113 35 -100 94 4 20 10 47 13 61 2 14 12 59 21
100 9 41 19 86 21 100 16 86 76 249 133 368 17 34 31 67 31 72 0 6 5 10 10 10
6 0 10 5 10 10 0 14 30 60 40 60 3 0 25 -20 48 -44z m4350 -278 c13 -17 49
-123 56 -169 18 -102 24 -292 12 -364 -2 -16 -8 -50 -11 -75 -12 -75 -40 -118
-85 -128 -25 -5 -461 -8 -470 -2 -5 3 19 34 53 70 34 36 78 85 97 110 19 25
37 47 40 50 29 24 102 148 119 200 21 66 108 242 143 293 21 30 31 33 46 15z
m-4558 -741 c59 -12 80 -20 80 -28 0 -5 6 -9 14 -9 8 0 25 -14 37 -32 42 -58
31 -247 -14 -254 -12 -1 -30 14 -52 44 -48 67 -55 70 -151 63 -25 -1 -48 -21
-93 -78 -40 -52 -70 -56 -100 -15 -24 34 -39 95 -34 136 10 72 73 147 145 172
29 10 121 10 168 1z m5087 -15 c82 -26 135 -94 135 -171 0 -47 -29 -132 -51
-145 -34 -21 -53 -13 -120 50 -38 35 -76 64 -85 64 -8 0 -37 -21 -63 -46 -69
-66 -90 -79 -107 -65 -44 37 -57 198 -20 259 18 31 67 57 124 65 43 6 154 0
187 -11z"/>
<path d="M1452 2790 c-77 -35 -154 -135 -169 -220 -10 -54 -8 -127 3 -177 6
-29 9 -53 6 -53 -2 0 0 -6 5 -12 6 -7 13 -26 17 -43 7 -30 64 -151 88 -190 23
-36 72 -100 83 -107 5 -4 6 -8 2 -8 -23 0 285 -286 443 -411 30 -23 61 -48 70
-55 8 -7 53 -43 100 -81 47 -37 87 -70 90 -73 3 -3 30 -25 60 -50 73 -60 106
-88 147 -128 20 -19 83 -65 142 -103 58 -38 115 -76 126 -84 10 -8 22 -15 26
-15 4 0 12 -13 18 -28 9 -22 9 -35 -1 -58 -19 -45 -81 -134 -133 -192 -46 -51
-165 -141 -165 -125 0 4 -4 3 -8 -3 -9 -14 -124 -50 -187 -59 -27 -4 -59 -9
-70 -12 -11 -2 -47 -6 -80 -8 -119 -9 -188 -20 -216 -36 -29 -15 -38 -40 -43
-115 -2 -38 -7 -76 -11 -86 -12 -31 -78 -38 -395 -42 -253 -4 -285 -9 -297
-54 -3 -13 -6 -54 -7 -91 l-1 -66 2050 0 2050 0 -1 76 c-1 93 -6 106 -41 120
-23 9 -167 22 -223 20 -70 -3 -383 -2 -385 1 -2 2 -5 46 -6 98 -1 52 -5 105
-10 117 -15 41 -45 47 -276 54 -193 6 -353 75 -480 209 -44 46 -119 155 -137
202 -14 33 -14 38 4 60 10 14 46 39 78 56 69 37 201 130 242 170 15 15 40 38
56 51 16 13 43 36 60 50 17 14 53 45 80 68 27 23 83 70 124 104 41 34 77 65
80 68 3 4 25 22 50 41 25 19 47 37 50 40 3 3 61 52 130 110 188 156 338 311
378 391 18 37 37 82 43 100 70 238 80 330 43 408 -88 192 -321 228 -434 68
-17 -23 -38 -52 -46 -64 -21 -29 -30 -23 -58 41 -38 86 -107 127 -221 131
-136 4 -234 -52 -250 -145 -9 -53 -15 -54 -48 -8 -62 87 -113 126 -191 145
-90 22 -211 0 -261 -47 -23 -21 -43 -67 -49 -108 -5 -34 -33 -21 -106 51 -120
117 -211 147 -308 102 -46 -21 -76 -48 -145 -128 l-33 -37 -75 72 c-96 92 -99
94 -140 105 -107 29 -282 -39 -285 -111 -1 -14 -7 -33 -14 -41 -16 -19 -47 -3
-115 60 -80 74 -116 89 -215 89 -69 0 -93 -4 -130 -23 -54 -28 -72 -49 -106
-120 -24 -52 -25 -53 -44 -36 -11 10 -31 36 -44 59 -26 44 -77 95 -117 117
-38 20 -120 20 -167 -1z"/>
</g>
</svg>
